<?xml version="1.0" encoding="utf-8"?>
<!-- Generator: Adobe Illustrator 27.5.0, SVG Export Plug-In . SVG Version: 6.00 Build 0)  -->
<svg version="1.1" id="Layer_2_00000020384684059797623100000008177776575337635472_"
	 xmlns="http://www.w3.org/2000/svg" xmlns:xlink="http://www.w3.org/1999/xlink" x="0px" y="0px" viewBox="0 0 1372.1 1013.3"
	 style="enable-background:new 0 0 1372.1 1013.3;" xml:space="preserve">
<style type="text/css">
	.st0{fill:none;}
	.st1{font-family:'MyriadPro-Regular';}
	.st2{font-size:12px;}
</style>
<path d="M364.6,313.9c0,0-35.5-14.4-114.5-1.7c-54.1,4.7-84.5,10.7-84.5,10.7s-36.7,5.3-59.8-8.5c-17.2-9.6-39.5-21.5-53.5-45.9
	c-7.2-12.7-12.5-27.1-14.3-41c-2.6-23.5-8-55.5,20.7-95.9c-77.3,87.8-5.6,163.8-5.6,163.8s3.3,5.9,22.1,20
	c9.5,7.2,19.9,13.1,31,17.3c20.1,7.7,37.1,8.1,73,1.8c44.9-10,88.5-21.7,103.8-21.7c-24.5,6.6-55.7,19.6-64.8,23.5
	c-2,0.9-4,1.6-6.1,2.3c-15,5-75.6,24-101.1,16.6c-29.6-5.3-63.7-38.3-75.6-62.4c3.7,28.8,34.7,61.4,34.7,61.4s23.9,27.9,74.1,18.9
	c39.8-10,108.5-44,108.5-44s39.4-17,61.2-15.2c-27.7,4.5-48.9,20.9-48.9,20.9s-57.1,34-80.6,45.6c-24.5,10-71,27.4-116.5-16.6
	c18.6,35.8,50.8,41.7,59.4,42.6c1.3,0.1,2.5,0.3,3.7,0.4c3.8,0.5,14.5,1.3,32.7-2c18-3.2,34.2-13,49.3-23.2s25-16,25-16
	s-40.4,50.8-34.1,82.2c4.1,20.6,28.6,15.7,28.6,15.7s27.1-2.3,51.4-33.7c11.9-15.3,27.1-39.5,31.2-47.7s8.9-16.3,14.6-23.6
	c11.1-14.3,29-31.7,50.8-32.5c-37.5-8.9-62.8,32.9-62.8,32.9s-19.1,26.3-37,52.9c-2.6,3.9-6.1,7.3-10.1,9.8
	c-7.9,4.9-17.5,8.6-28.4,8.5c-7.2-0.1-9.8-6.6-10.6-13s0.2-13.4,2.8-19.6c2.2-5.2,5.3-12.9,9.2-20.9c6.3-12.9,14.9-24.6,25.3-34.4
	c11.6-10.9,28.1-21.8,69.7-27.7c4.7-0.7,9.5-0.9,14.3-0.8C360.6,314,364.5,313.9,364.6,313.9L364.6,313.9z"/>
<path d="M332.7,320.5c-17.1,2.4-70.6,17-88.9,73.5c-1.2,3.7-2.1,6.7-2,10.6c0.4,12.2,10.8,13.1,10.8,13.1s8.6,2.4,21.6-14.5
	c1.4-1.8,5-8.4,6.1-10.4c7.8-14.8,14.9-37.6,51.4-59.2c-35.7,10.2-60.4,49.8-64.2,56.6c-1.1,2.1-3.3,5.2-4.7,7.1
	c-1.8,2.2-5.1,3.4-7.9,1.5c-2.2-1.5-3-4.3-2.3-6.9c1.5-5.7,4.7-11.9,9.3-20c8.4-15,21.2-27,36.6-34.7c11.5-5.7,27.2-13.4,47.5-16.9
	C342.9,319.7,336,320.1,332.7,320.5L332.7,320.5z"/>
<path d="M400.2,329.2c0,0-11.9-34.4-174-21.4c-51.8,1.1-86.6-22.5-86.6-22.5s-54.1-36.1-47-87.5c5.1-30.6,12.4-45.3,18.7-54.7
	c3.4-5.1,11.6-14.6,15.5-19.4c11.8-14.5,34.7-38.5,93-50.1c-62,26.6-115.4,81.1-105.6,145.4c0.5,24.2,14.1,21.9,17.2,25.1
	c5.1,5.1,0.8,12.2,1.6,13c4.6,4.2,19.1,12.1,32.2,13c-4.4-6.5-8.5-13.4-12-19.5c-9.3-16.3-11.1-36-4.4-53.5
	c7.3-19.2,22.5-58.2,55.1-68.7c-40.1,32.6-43.5,72.7-43.6,83.1c0,1.5-0.1,3.1-0.3,4.6c-0.9,7.8-0.4,36.2,50.1,58.4
	c48.8,14.8,119.6,22.1,119.6,22.1S382.4,301.2,400.2,329.2L400.2,329.2z"/>
<path d="M183.5,311.2c0,0-2.9-0.6-5.3-1c-36.9-5.9-192.1-84.1-26.3-234.4c31.7-28.7,77-50.2,119.6-47.4
	c47.2,3.1,92.2,16.5,92.2,16.5S194.7-29.2,100,97.9c-10.2,13.8-25.8,33.1-32,47.6c-17.4,40.2-25.2,63.1-10.7,102.6
	c9.8,26.1,34.5,42.4,59,53C148.1,314.8,183.5,311.2,183.5,311.2L183.5,311.2z"/>
<path d="M355.6,257.1c0,0-54.5-31.5-57.5-20.7c-2.6,5.5-0.8,14.4,1,20.4c1.6,5.3,4.4,10.2,8.2,14.2c6.8,7.1,20.4,17.5,45.4,24.9
	c56.9,14.2,51.2,31.6,51.2,31.6s-19.3-28.4-85.3-35.7c-3.4-0.4-6.8-0.9-10.1-1.7c-25.9-6.1-43.9-14.5-56-22.4
	c-12.2-7.9-22.1-20-27.3-34c-5.6-15.4-19.6-37.9-46.4,3c-18.2-40.2,28.9-49.6,28.9-49.6s10.8-5.1,33.5,9.7c0.8,0.5,1.8,0.4,2.5-0.2
	c2.2-2.2,5.9-9.1-0.9-27.6c-9-24.7,41-34.7,47.9-46.2c4-6.8,4.3-9.6,3.8-10.8c-0.1-0.4,0.2-0.7,0.6-0.6c2,0.6,5.7,2.3,9.6,7.7
	c1.1,1.4,2.6,2.5,4.4,3c2.4,0.6,4.5,1.3,6.2,2c2.4,0.9,5,1.3,7.6,1.2c7.8-0.3,24.3-0.4,28.5,5c4.5,7.3,2.3,11.8,2.3,11.8
	s-3.7-13.5-14.9-13.3c-8.4-1.4-16.5-0.8-16.5-0.8s-8.2-0.4-5.3,4.1c2.9,4.5,7.3,6.9,10.9,11.7c3.6,4.8,0.2,8.5,0.2,8.5
	s-15.9,7.2-15.9,12.3c0.2,6.1,2.7,7.3,4.5,9.1s44.9,34,54.1,44.4c-29.4-19.6-47.2-33.1-52.5-36.3s-29-14.8-32.8-18.1
	s10.6,7.1,17.9-2.5c5.3-9.2,12.8-12.7,7.7-22.9c-6.9-8.8-18.2-4.5-21.2-3.9s-19,1.8-34.3,17c-11,11.4-6.9,16.7-5.3,24.5
	s6.8,29.2,22.7,37.3c10.6,5.4,29.6,14.1,41.1,19.3c6.4,2.9,12.6,6.3,18.5,10.1L355.6,257.1L355.6,257.1z"/>
<path d="M362.5,165.4c0,0-8-4.5-11.4-16.1s-2.5-17.8-8.8-18.6c-6.3-0.8-20.2-4.1-22.8-1.6s13.5,18.3,15.9,19.1s7.4,4,4.3,0.4
	s-12.7-7.7-15.3-15.3c1.2-4.3,13-1.6,16.5,0.8s3.5,6.1,1.2,5.9c-2.3-0.2-5.3-1-5.3-1s1.2,5.9,7.8,3.5
	C344.3,145.6,349.8,157.8,362.5,165.4L362.5,165.4z"/>
<path d="M358.1,261.1c0,0,4.7,13.3,9.8,28.6c17.2,4.7,33,1.6,33,1.6s0.4-8.2-4.7-3.1c-8.2-0.4-19.2-4.3-19.2-4.3s-6.8-0.8-10.9-10.1
	C361.9,264.5,358.1,261.1,358.1,261.1L358.1,261.1z"/>
<path d="M396.9,282c0,0-21.6-16.1-32.1-18.1c-6.7-13,4.7-27.5,13.5-24.1c8.8,3.3,5.7,8.1,10.8,13.1c5.1,5.1,38.4,24,41.2,12.2
	c2.8-11.8,10.8-32.7,1.4-39s-27.1-7.6-35.4-26c-0.9-2-2-4-3.1-5.9c-10.1-17.9-25.8-39.9-25.8-39.9s-7.8-8.6-7.8-18.8
	c-1.2-11-13.3-15.7-13.3-15.7s-9-4.3-15.5-6.1c-12.8-2.6-12.5-6.7-12.5-6.7l-4.3-16.5c0,0-6.9-21.2-23.6-39.2
	c-2.2-2.4-4.4-4.9-6.3-7.5c-4.5-5.9-5.5-6.3-7.3-2.1c-1.1,2.6-1.9,5.3-2.3,8.1c-1.8,11.2-2.5,32.5,2.1,42.1
	c-17.3,0.4-2.7-74.9-0.1-72.4s30,43,35.1,53.2s7.2,31.1,25.8,37.1c17.6,5.7,27.8,6.9,31,31c0.4,2.9,1.4,5.6,2.9,8
	c10.8,17.3,27.1,41.6,29.1,46.9c7,14.9,33.4,25.8,33.4,25.8s11,6.2,5.6,23.6c-3.2,15.9-4.5,21.3-4.5,21.3s-2.6,12.8-18.2,5.7l-4.8-2
	c-1.2-0.5-2.4-1.1-3.6-1.8c-6.4-3.6-28.8-16.1-31.8-13.8c-3.9,5.9-3.5,7.8-3.5,7.8S392,272.8,396.9,282L396.9,282z"/>
<path d="M426.4,260.8c0,0,4.5-18.2-10.6-27.5c-7.8-3.5-9.4,1.9-9.4,1.9s-1.5,4.4,5.9,6c0.2,6.1-10.8,2.1-10.8,2.1s-6.3-0.8-4.5-12.4
	s7.9-11.8,7.9-11.8s15.9,3,20.4,10.2s6.1,15.1,5.1,20.4S426.4,260.8,426.4,260.8L426.4,260.8z"/>
<path d="M304.2,82.2c0,0,0.1,0.3,0.4,0.7c1.7,3.4,8.1,17.9-1.6,18.9c5.5,7.1,9.4,6.3,9.4,6.3s2.9-11.5-6.5-27.3
	C302.3,79,304.1,82.2,304.2,82.2L304.2,82.2z"/>
<path d="M318.3,76.4c0,0,16.9,13,13.3,20.8c-3.7,1.8,0.6,7,0.6,7s9.9,10.3,26,4c6.5-3.3,6.8-9.3,5.5-14.4c-1.4-5.7-5.1-10.5-10-13.7
	c-4.6-3-11.4-6.7-19.1-8c-18-3.5-21.4-10-23.3-14.7s-4.1-15.5-4.1-15.5s-3,15.9,9.8,28.6c9.5,4.8,14.3,8,16.6,9.8
	c1.3,1,2.6,1.9,4,2.8c3.5,2.1,9.9,7.9,6.2,19.9c-3.5,2.4-3.5-6.1-3.5-6.1S342.2,83.8,318.3,76.4L318.3,76.4z"/>
<path d="M286.3,95c0,0-34.1-25.3-69.2-9.7c-29.4,13.1-40.8,25.3-62.8,46.8c-9,8.8-16.5,19.1-21.8,30.5c-11.6,25-10.8,42.6-10.8,42.6
	s-2.8,22,7.8,29s11,19.2,11,19.2l9.4,6.3c0,0-11.3-21.8-14.3-43.6c-2.1-15.6,6.9-41.6,16.3-56.3c16.2-25.2,25.6-31.6,38.5-42.3
	c9.6-8,16.1-11.4,26.2-16.2c9.2-4.4,17.1-7.5,25.9-9.1c4-0.7,8.1-1.1,12.2-1.1C277.7,91.4,286.3,95,286.3,95L286.3,95z"/>
<path d="M281.2,51.6c0,0-4.9,16.3-0.4,33.7C279.5,73.4,281.2,51.6,281.2,51.6z"/>
<path d="M340.2,137.8c0,0-1.6-2.8-4.9-4.1c-3.3-1.4-6.3-0.8-6.3-0.8s3.3,1.2,5.5,1.9C336.7,135.5,340.2,137.8,340.2,137.8
	L340.2,137.8z"/>
<path d="M422.7,254.9c0,0,1.4-13.5-10-19.4C421.3,242.9,422.7,254.9,422.7,254.9z"/>
<rect x="55.9" y="418" class="st0" width="150.8" height="35.7"/>
<text transform="matrix(1 0 0 1 55.9355 426.4892)" class="st1 st2">by Eduard Olteanu</text>
</svg>
