<?xml version="1.0" encoding="utf-8"?>
<!-- Generator: Adobe Illustrator 27.5.0, SVG Export Plug-In . SVG Version: 6.00 Build 0)  -->
<svg version="1.1" id="Layer_1" xmlns="http://www.w3.org/2000/svg" xmlns:xlink="http://www.w3.org/1999/xlink" x="0px" y="0px"
	 viewBox="0 0 300 300" style="enable-background:new 0 0 300 300;" xml:space="preserve">
<style type="text/css">
	.st0{fill:none;}
	.st1{font-family:'ArialMT';}
	.st2{font-size:5.5865px;}
</style>
<path d="M190.4,161.1c0,0-16.5-6.7-53.3-0.8c-25.2,2.2-39.3,5-39.3,5s-17.1,2.5-27.8-4c-8-4.5-18.4-10-24.9-21.4
	c-3.4-5.9-5.8-12.6-6.7-19.1c-1.2-10.9-3.7-25.8,9.6-44.6c-36,40.9-2.6,76.3-2.6,76.3s1.5,2.7,10.3,9.3c4.4,3.4,9.3,6.1,14.4,8.1
	c9.4,3.6,17.3,3.8,34,0.8c20.9-4.7,41.2-10.1,48.3-10.1c-11.4,3.1-25.9,9.1-30.2,10.9c-0.9,0.4-1.9,0.7-2.8,1.1
	c-7,2.3-35.2,11.2-47.1,7.7c-13.8-2.5-29.7-17.8-35.2-29c1.7,13.4,16.2,28.6,16.2,28.6s11.1,13,34.5,8.8
	c18.5-4.7,50.5-20.5,50.5-20.5s18.3-7.9,28.5-7.1c-12.9,2.1-22.8,9.7-22.8,9.7s-26.6,15.8-37.5,21.2c-11.4,4.7-33.1,12.8-54.2-7.7
	c8.7,16.7,23.6,19.4,27.7,19.8c0.6,0,1.2,0.1,1.7,0.2c1.8,0.2,6.8,0.6,15.2-0.9c8.4-1.5,15.9-6.1,23-10.8c7-4.7,11.6-7.4,11.6-7.4
	s-18.8,23.6-15.9,38.3c1.9,9.6,13.3,7.3,13.3,7.3s12.6-1.1,23.9-15.7c5.5-7.1,12.6-18.4,14.5-22.2c1.9-3.8,4.1-7.6,6.8-11
	c5.2-6.7,13.5-14.8,23.6-15.1c-17.5-4.1-29.2,15.3-29.2,15.3s-8.9,12.2-17.2,24.6c-1.2,1.8-2.8,3.4-4.7,4.6c-3.7,2.3-8.1,4-13.2,4
	c-3.4,0-4.6-3.1-4.9-6.1c-0.4-3,0.1-6.2,1.3-9.1c1-2.4,2.5-6,4.3-9.7c2.9-6,6.9-11.5,11.8-16c5.4-5.1,13.1-10.1,32.4-12.9
	c2.2-0.3,4.4-0.4,6.7-0.4C188.5,161.2,190.3,161.1,190.4,161.1L190.4,161.1z"/>
<path d="M175.5,164.2c-8,1.1-32.9,7.9-41.4,34.2c-0.6,1.7-1,3.1-0.9,4.9c0.2,5.7,5,6.1,5,6.1s4,1.1,10.1-6.8
	c0.7-0.8,2.3-3.9,2.8-4.8c3.6-6.9,6.9-17.5,23.9-27.6c-16.6,4.7-28.1,23.2-29.9,26.3c-0.5,1-1.5,2.4-2.2,3.3c-0.8,1-2.4,1.6-3.7,0.7
	c-1-0.7-1.4-2-1.1-3.2c0.7-2.7,2.2-5.5,4.3-9.3c3.9-7,9.9-12.6,17-16.2c5.4-2.7,12.7-6.2,22.1-7.9C180.3,163.8,177,164,175.5,164.2
	L175.5,164.2z"/>
<path d="M206.9,168.2c0,0-5.5-16-81-10c-24.1,0.5-40.3-10.5-40.3-10.5S60.4,131,63.7,107.1c2.4-14.2,5.8-21.1,8.7-25.5
	c1.6-2.4,5.4-6.8,7.2-9c5.5-6.8,16.2-17.9,43.3-23.3C94.1,61.6,69.2,87,73.8,116.9c0.2,11.3,6.6,10.2,8,11.7
	c2.4,2.4,0.4,5.7,0.7,6.1c2.1,2,8.9,5.6,15,6.1c-2-3-4-6.2-5.6-9.1c-4.3-7.6-5.2-16.8-2-24.9c3.4-8.9,10.5-27.1,25.7-32
	c-18.7,15.2-20.3,33.8-20.3,38.7c0,0.7,0,1.4-0.1,2.1c-0.4,3.6-0.2,16.9,23.3,27.2c22.7,6.9,55.7,10.3,55.7,10.3
	S198.6,155.2,206.9,168.2L206.9,168.2z"/>
<path d="M106,159.9c0,0-1.4-0.3-2.5-0.5c-17.2-2.7-89.4-39.2-12.2-109.1c14.8-13.4,35.8-23.4,55.7-22.1c22,1.4,42.9,7.7,42.9,7.7
	S111.3,1.4,67.2,60.6C62.4,67,55.2,76,52.3,82.7c-8.1,18.7-11.7,29.4-5,47.8c4.6,12.2,16.1,19.7,27.5,24.7
	C89.6,161.5,106,159.9,106,159.9L106,159.9z"/>
<path d="M186.2,134.7c0,0-25.4-14.7-26.8-9.6c-1.2,2.6-0.4,6.7,0.5,9.5c0.7,2.5,2,4.7,3.8,6.6c3.2,3.3,9.5,8.1,21.1,11.6
	c26.5,6.6,23.8,14.7,23.8,14.7s-9-13.2-39.7-16.6c-1.6-0.2-3.2-0.4-4.7-0.8c-12.1-2.8-20.4-6.8-26.1-10.4
	c-5.7-3.7-10.3-9.3-12.7-15.8c-2.6-7.2-9.1-17.6-21.6,1.4c-8.5-18.7,13.5-23.1,13.5-23.1s5-2.4,15.6,4.5c0.4,0.2,0.8,0.2,1.2-0.1
	c1-1,2.7-4.2-0.4-12.8c-4.2-11.5,19.1-16.2,22.3-21.5c1.9-3.2,2-4.5,1.8-5c0-0.2,0.1-0.3,0.3-0.3c0.9,0.3,2.7,1.1,4.5,3.6
	c0.5,0.7,1.2,1.2,2,1.4c1.1,0.3,2.1,0.6,2.9,0.9c1.1,0.4,2.3,0.6,3.5,0.6c3.6-0.1,11.3-0.2,13.3,2.3c2.1,3.4,1.1,5.5,1.1,5.5
	s-1.7-6.3-6.9-6.2c-3.9-0.7-7.7-0.4-7.7-0.4s-3.8-0.2-2.5,1.9c1.4,2.1,3.4,3.2,5.1,5.4c1.7,2.2,0.1,4,0.1,4s-7.4,3.4-7.4,5.7
	c0.1,2.8,1.3,3.4,2.1,4.2c0.8,0.8,20.9,15.8,25.2,20.7c-13.7-9.1-22-15.4-24.4-16.9c-2.5-1.5-13.5-6.9-15.3-8.4
	c-1.8-1.5,4.9,3.3,8.3-1.2c2.5-4.3,6-5.9,3.6-10.7c-3.2-4.1-8.5-2.1-9.9-1.8c-1.4,0.3-8.8,0.8-16,7.9c-5.1,5.3-3.2,7.8-2.5,11.4
	c0.7,3.6,3.2,13.6,10.6,17.4c4.9,2.5,13.8,6.6,19.1,9c3,1.4,5.9,2.9,8.6,4.7L186.2,134.7L186.2,134.7z"/>
<path d="M189.4,92c0,0-3.7-2.1-5.3-7.5c-1.6-5.4-1.2-8.3-4.1-8.7s-9.4-1.9-10.6-0.7c-1.2,1.2,6.3,8.5,7.4,8.9c1.1,0.4,3.4,1.9,2,0.2
	c-1.4-1.7-5.9-3.6-7.1-7.1c0.6-2,6.1-0.7,7.7,0.4c1.6,1.1,1.6,2.8,0.6,2.7c-1.1-0.1-2.5-0.5-2.5-0.5s0.6,2.7,3.6,1.6
	C180.9,82.8,183.5,88.4,189.4,92L189.4,92z"/>
<path d="M187.3,136.5c0,0,2.2,6.2,4.6,13.3c8,2.2,15.4,0.7,15.4,0.7s0.2-3.8-2.2-1.4c-3.8-0.2-8.9-2-8.9-2s-3.2-0.4-5.1-4.7
	C189.1,138.1,187.3,136.5,187.3,136.5L187.3,136.5z"/>
<path d="M205.4,146.3c0,0-10.1-7.5-14.9-8.4c-3.1-6.1,2.2-12.8,6.3-11.2c4.1,1.5,2.7,3.8,5,6.1c2.4,2.4,17.9,11.2,19.2,5.7
	c1.3-5.5,5-15.2,0.7-18.2c-4.4-2.9-12.6-3.5-16.5-12.1c-0.4-0.9-0.9-1.9-1.4-2.7c-4.7-8.3-12-18.6-12-18.6s-3.6-4-3.6-8.8
	c-0.6-5.1-6.2-7.3-6.2-7.3s-4.2-2-7.2-2.8c-6-1.2-5.8-3.1-5.8-3.1l-2-7.7c0,0-3.2-9.9-11-18.2c-1-1.1-2-2.3-2.9-3.5
	c-2.1-2.7-2.6-2.9-3.4-1c-0.5,1.2-0.9,2.5-1.1,3.8c-0.8,5.2-1.2,15.1,1,19.6c-8.1,0.2-1.3-34.9,0-33.7c1.2,1.2,14,20,16.3,24.8
	s3.4,14.5,12,17.3c8.2,2.7,12.9,3.2,14.4,14.4c0.2,1.4,0.7,2.6,1.4,3.7c5,8.1,12.6,19.4,13.5,21.8c3.3,6.9,15.5,12,15.5,12
	s5.1,2.9,2.6,11c-1.5,7.4-2.1,9.9-2.1,9.9s-1.2,6-8.5,2.7l-2.2-0.9c-0.6-0.2-1.1-0.5-1.7-0.8c-3-1.7-13.4-7.5-14.8-6.4
	c-1.8,2.7-1.6,3.6-1.6,3.6S203.1,142,205.4,146.3L205.4,146.3z"/>
<path d="M219.1,136.4c0,0,2.1-8.5-4.9-12.8c-3.6-1.6-4.4,0.9-4.4,0.9s-0.7,2,2.7,2.8c0.1,2.8-5,1-5,1s-2.9-0.4-2.1-5.8
	c0.8-5.4,3.7-5.5,3.7-5.5s7.4,1.4,9.5,4.7c2.1,3.4,2.8,7,2.4,9.5C220.5,133.7,219.1,136.4,219.1,136.4L219.1,136.4z"/>
<path d="M162.2,53.3c0,0,0,0.1,0.2,0.3c0.8,1.6,3.8,8.3-0.7,8.8c2.6,3.3,4.4,2.9,4.4,2.9s1.4-5.4-3-12.7
	C161.4,51.8,162.2,53.3,162.2,53.3L162.2,53.3z"/>
<path d="M168.8,50.6c0,0,7.9,6.1,6.2,9.7c-1.7,0.8,0.3,3.3,0.3,3.3s4.6,4.8,12.1,1.9c3-1.5,3.2-4.3,2.6-6.7
	c-0.7-2.7-2.4-4.9-4.7-6.4c-2.1-1.4-5.3-3.1-8.9-3.7c-8.4-1.6-10-4.7-10.8-6.8c-0.9-2.2-1.9-7.2-1.9-7.2s-1.4,7.4,4.6,13.3
	c4.4,2.2,6.7,3.7,7.7,4.6c0.6,0.5,1.2,0.9,1.9,1.3c1.6,1,4.6,3.7,2.9,9.3c-1.6,1.1-1.6-2.8-1.6-2.8S179.9,54,168.8,50.6L168.8,50.6z
	"/>
<path d="M153.9,59.2c0,0-15.9-11.8-32.2-4.5c-13.7,6.1-19,11.8-29.2,21.8c-4.2,4.1-7.7,8.9-10.1,14.2c-5.4,11.6-5,19.8-5,19.8
	S76,120.8,80.9,124c4.9,3.3,5.1,8.9,5.1,8.9l4.4,2.9c0,0-5.3-10.1-6.7-20.3c-1-7.3,3.2-19.4,7.6-26.2c7.5-11.7,11.9-14.7,17.9-19.7
	c4.5-3.7,7.5-5.3,12.2-7.5c4.3-2,8-3.5,12.1-4.2c1.9-0.3,3.8-0.5,5.7-0.5C149.9,57.5,153.9,59.2,153.9,59.2L153.9,59.2z"/>
<path d="M151.5,39c0,0-2.3,7.6-0.2,15.7C150.7,49.2,151.5,39,151.5,39z"/>
<path d="M179,79.1c0,0-0.7-1.3-2.3-1.9c-1.5-0.7-2.9-0.4-2.9-0.4s1.5,0.6,2.6,0.9C177.4,78.1,179,79.1,179,79.1L179,79.1z"/>
<path d="M217.4,133.7c0,0,0.7-6.3-4.7-9C216.8,128.1,217.4,133.7,217.4,133.7z"/>
<rect x="46.6" y="209.6" class="st0" width="70.2" height="16.6"/>
<text transform="matrix(1 0 0 1 46.6582 213.5332)" class="st1 st2">by Eduard Olteanu</text>
</svg>
